<?xml version="1.0" encoding="UTF-8" ?>
<!DOCTYPE svg PUBLIC "-//W3C//DTD SVG 1.1//EN" "http://www.w3.org/Graphics/SVG/1.1/DTD/svg11.dtd">
<svg width="1024pt" height="1024pt" viewBox="0 0 1024 1024" version="1.1" xmlns="http://www.w3.org/2000/svg">
<g id="#fffffeff">
<path fill="#fffffe" opacity="1.00" d=" M 579.75 257.68 C 583.80 256.48 588.58 257.76 590.29 261.94 C 594.63 271.69 592.93 283.23 588.86 292.79 C 587.19 296.97 585.17 301.00 582.80 304.82 C 582.29 305.64 581.78 306.47 581.28 307.29 C 580.11 308.76 579.12 310.36 579.13 312.30 C 579.82 312.18 581.20 311.93 581.89 311.81 C 590.68 310.97 599.63 312.29 607.97 315.15 C 609.59 315.82 611.21 316.51 612.81 317.26 C 619.84 320.77 627.04 325.05 631.15 332.00 C 632.65 334.45 632.74 337.38 632.46 340.17 C 630.35 344.70 626.26 347.72 622.14 350.29 C 621.05 350.81 619.99 351.35 618.93 351.88 C 613.55 354.28 607.74 355.61 601.88 355.90 C 598.68 356.46 595.38 356.41 592.19 355.83 C 588.22 355.78 584.36 354.65 580.40 354.58 C 580.94 358.50 582.14 362.29 582.87 366.18 C 583.99 371.45 584.97 376.76 585.95 382.07 C 586.34 383.75 586.56 385.47 586.83 387.18 C 587.68 391.79 588.39 396.44 588.88 401.11 C 591.23 417.03 591.71 434.04 585.10 449.08 C 583.26 452.09 582.37 455.98 579.30 458.04 C 580.85 453.73 582.97 449.58 583.62 445.00 C 585.07 438.21 584.05 431.06 581.26 424.75 C 579.92 422.14 578.44 419.61 576.81 417.18 C 569.71 407.76 559.62 400.95 548.94 396.19 C 547.27 395.47 545.60 394.78 543.91 394.17 C 542.67 393.71 541.42 393.27 540.20 392.80 C 536.55 391.69 532.87 390.71 529.16 389.84 C 527.47 389.57 525.79 389.32 524.16 388.86 C 521.82 388.55 519.46 388.36 517.16 387.84 C 513.80 387.54 510.41 387.59 507.11 386.87 C 495.63 386.13 484.19 387.36 472.83 388.84 C 469.51 389.58 466.15 390.17 462.82 390.87 C 457.76 392.35 452.68 393.76 447.79 395.75 C 441.86 398.24 436.12 401.22 430.74 404.75 C 421.68 411.21 413.38 419.54 409.49 430.17 C 406.44 438.25 407.33 447.54 411.53 455.04 C 411.39 455.22 411.12 455.57 410.98 455.74 C 410.24 454.55 409.51 453.37 408.80 452.18 C 402.88 439.14 401.42 424.24 403.14 410.12 C 403.40 407.12 403.43 404.09 404.13 401.15 C 404.36 399.04 404.56 396.93 404.83 394.83 C 405.37 392.30 405.51 389.71 406.13 387.20 C 406.37 385.44 406.59 383.68 406.85 381.94 C 408.02 374.17 409.51 366.44 410.89 358.72 L 411.47 357.97 C 410.94 357.17 410.51 356.33 410.12 355.47 C 407.42 357.11 404.02 357.14 400.97 357.61 C 394.36 357.76 387.59 358.34 381.09 356.92 C 380.29 356.75 378.69 356.39 377.89 356.21 C 376.64 355.72 375.38 355.27 374.14 354.81 C 368.11 352.78 362.89 348.60 359.68 343.11 C 358.22 338.21 360.98 333.70 364.37 330.41 C 369.28 324.60 375.92 320.62 382.88 317.75 C 392.02 313.66 402.08 314.10 411.84 314.30 C 411.16 313.28 410.46 312.27 409.76 311.29 C 406.62 307.56 404.07 303.38 401.76 299.10 C 400.83 297.05 399.96 294.97 399.15 292.88 C 396.70 287.56 396.37 281.72 395.82 276.00 C 396.31 271.83 396.66 267.60 398.62 263.81 C 401.02 259.35 406.76 259.82 410.92 261.04 C 426.09 268.11 437.99 280.36 451.86 289.52 C 456.21 289.68 460.04 287.34 464.15 286.29 C 478.88 281.20 494.71 280.23 510.13 281.84 C 516.17 282.68 522.13 284.04 527.85 286.17 C 530.63 286.93 533.26 288.62 536.24 288.40 C 538.06 287.65 539.59 286.38 541.17 285.23 C 542.71 284.08 544.24 282.92 545.76 281.75 C 557.05 273.70 566.59 262.82 579.75 257.68 M 454.82 342.70 C 451.24 343.86 448.11 346.17 446.64 349.74 C 443.57 356.56 447.31 365.93 454.90 367.52 C 461.11 368.88 466.72 363.96 468.33 358.23 C 469.65 351.60 465.73 344.66 459.23 342.66 C 457.75 342.67 456.28 342.68 454.82 342.70 M 532.78 342.65 C 530.83 343.67 528.83 344.74 527.50 346.55 C 524.47 350.06 525.11 355.06 525.57 359.33 C 526.90 362.24 528.83 364.87 531.71 366.41 C 534.51 367.43 537.51 367.49 540.31 366.39 C 542.84 364.92 544.85 362.79 546.36 360.31 C 547.72 356.59 547.75 352.49 546.33 348.79 C 544.72 345.99 542.24 343.86 539.28 342.60 C 537.11 342.53 534.94 342.55 532.78 342.65 Z" />
<path fill="#fffffe" opacity="1.00" d=" M 653.59 405.85 C 655.98 401.78 660.58 399.35 665.29 400.56 C 667.99 402.32 670.48 404.71 671.27 407.95 C 672.31 413.23 670.34 418.44 668.22 423.20 C 665.76 427.56 663.03 431.77 659.86 435.65 C 659.56 435.28 658.97 434.54 658.68 434.18 C 658.06 432.48 657.40 430.80 656.74 429.13 C 655.29 424.85 653.86 420.56 652.78 416.18 C 652.19 412.71 652.14 409.12 653.59 405.85 Z" />
<path fill="#fffffe" opacity="1.00" d=" M 695.12 408.97 C 703.97 405.90 711.23 417.32 707.56 424.93 C 704.36 433.05 695.33 436.14 687.55 438.03 C 683.26 439.16 678.87 439.95 674.72 441.51 C 671.91 440.51 674.50 437.74 674.75 435.95 C 675.75 433.61 676.74 431.26 677.79 428.94 C 681.96 421.20 686.66 412.63 695.12 408.97 Z" />
<path fill="#fffffe" opacity="1.00" d=" M 534.89 425.82 C 537.19 423.70 540.48 424.21 543.32 424.54 C 551.42 430.67 543.13 445.19 533.71 442.54 C 528.08 438.52 529.63 429.49 534.89 425.82 Z" />
<path fill="#fffffe" opacity="1.00" d=" M 445.19 432.03 C 445.09 428.79 447.42 425.05 450.99 425.21 C 460.71 423.73 467.64 438.94 459.17 444.55 C 451.79 446.55 444.57 439.28 445.19 432.03 Z" />
<path fill="#fffffe" opacity="1.00" d=" M 679.00 453.98 C 686.68 450.17 695.54 448.50 704.07 449.53 C 709.46 450.39 715.48 453.13 717.22 458.76 C 718.58 464.48 713.32 469.60 708.04 470.56 C 704.76 471.18 701.75 469.64 698.90 468.28 C 691.94 464.02 685.12 459.38 679.00 453.98 Z" />
<path fill="#fffffe" opacity="1.00" d=" M 675.20 497.07 C 680.36 496.28 685.71 496.22 690.86 497.09 C 706.13 498.56 720.95 508.24 726.29 522.98 C 728.23 528.07 729.36 533.41 730.18 538.79 C 730.85 547.54 730.93 556.38 730.14 565.13 C 729.56 568.35 729.69 571.66 728.88 574.85 C 727.29 587.26 724.10 599.52 718.86 610.90 C 718.33 611.97 717.79 613.04 717.27 614.12 C 710.67 626.74 700.36 637.63 687.14 643.30 C 672.03 649.70 654.11 651.14 638.91 644.29 C 638.41 644.03 637.43 643.49 636.93 643.23 C 625.48 636.93 618.43 624.63 616.35 611.98 C 615.28 607.76 615.62 603.36 614.83 599.11 C 614.62 595.70 614.64 592.29 614.83 588.89 C 615.69 584.35 615.12 579.67 616.10 575.14 C 616.55 571.12 617.28 567.13 618.16 563.19 C 619.47 555.18 622.03 547.45 624.77 539.84 C 626.05 536.86 627.27 533.86 628.70 530.94 C 628.95 530.42 629.47 529.37 629.73 528.85 C 636.05 516.63 646.30 506.37 659.11 501.11 C 664.25 499.03 669.66 497.50 675.20 497.07 M 675.91 524.77 C 674.21 525.42 672.51 526.05 670.82 526.67 C 664.00 530.25 659.83 537.19 657.21 544.19 C 655.29 548.95 654.08 553.93 652.88 558.91 C 652.22 562.54 651.55 566.18 650.85 569.82 C 649.22 583.51 646.40 597.83 650.66 611.32 C 652.18 614.25 654.07 617.32 657.21 618.73 C 660.54 620.50 664.39 620.50 668.06 620.18 C 670.10 619.56 672.15 618.96 674.18 618.30 C 681.73 614.45 686.10 606.72 689.21 599.17 C 691.24 593.61 692.77 587.90 694.18 582.16 C 694.41 580.75 694.63 579.34 694.89 577.95 C 695.55 575.37 695.50 572.68 696.09 570.10 C 696.43 567.04 696.55 563.96 696.83 560.90 C 697.59 555.05 697.72 548.96 696.82 543.12 C 696.60 541.69 696.38 540.26 696.19 538.84 C 694.85 532.28 690.24 526.27 683.47 524.78 C 680.95 524.50 678.41 524.52 675.91 524.77 Z" />
<path fill="#fffffe" opacity="1.00" d=" M 521.77 523.91 C 528.36 511.00 541.87 502.52 556.17 501.11 C 563.63 499.96 571.37 499.93 578.84 501.11 C 584.96 502.07 591.07 503.95 596.24 507.45 C 601.50 511.38 605.88 516.62 608.28 522.78 C 609.58 526.99 611.12 531.36 610.47 535.83 C 609.87 537.95 607.78 539.15 605.87 539.92 C 604.54 540.24 603.22 540.55 601.91 540.89 C 597.96 541.84 593.94 542.51 589.91 542.92 C 588.54 543.14 587.17 543.28 585.81 543.39 C 583.99 542.63 582.18 541.69 581.20 539.90 C 580.71 538.64 580.24 537.39 579.74 536.15 C 579.26 535.01 578.78 533.88 578.36 532.74 C 576.96 530.71 575.20 528.98 573.15 527.63 C 568.71 525.81 563.69 525.88 559.10 527.10 C 553.78 528.83 550.19 533.60 548.72 538.84 C 548.22 543.08 548.32 547.53 550.65 551.27 C 554.70 557.04 560.84 560.76 567.04 563.83 C 568.63 564.64 570.23 565.45 571.84 566.26 C 583.10 571.82 595.05 578.76 599.95 591.03 C 600.37 592.29 600.78 593.56 601.24 594.83 C 602.58 600.74 603.23 606.91 601.98 612.90 C 601.65 614.56 601.34 616.23 600.93 617.88 C 600.37 619.89 599.65 621.86 598.82 623.78 C 598.30 624.92 597.79 626.07 597.30 627.23 C 592.63 635.99 585.00 642.92 576.10 647.21 C 569.72 650.08 562.86 651.90 555.91 652.59 C 546.29 653.00 536.28 653.60 527.17 649.89 C 519.90 647.18 513.16 642.70 508.70 636.26 C 505.02 630.49 502.65 622.99 505.54 616.40 C 506.93 612.87 510.66 611.20 514.14 610.48 C 519.37 609.07 524.86 608.95 530.23 609.56 C 531.38 610.50 532.43 611.57 533.26 612.83 C 534.67 618.88 539.53 623.99 545.63 625.37 C 549.45 626.02 553.34 625.73 557.15 625.23 C 561.75 623.81 566.02 621.07 568.50 616.86 C 571.53 611.68 571.38 604.37 567.15 599.88 C 563.56 595.86 558.65 593.45 554.03 590.86 C 553.54 590.60 552.56 590.08 552.07 589.82 C 540.37 583.50 527.51 577.20 520.69 565.18 C 520.43 564.68 519.91 563.70 519.65 563.21 C 519.01 561.51 518.40 559.82 517.76 558.14 C 517.53 556.72 517.34 555.31 517.11 553.91 C 515.46 544.55 517.20 534.81 520.68 526.06 C 521.04 525.34 521.40 524.62 521.77 523.91 Z" />
<path fill="#fffffe" opacity="1.00" d=" M 475.13 505.13 C 483.47 504.36 491.87 503.31 500.27 503.62 C 502.34 504.44 504.44 505.69 505.21 507.93 C 505.84 510.54 505.42 513.26 504.83 515.84 C 504.43 519.87 503.99 523.94 503.06 527.88 C 501.86 531.84 497.47 532.78 493.87 532.91 C 480.80 533.95 467.72 535.27 454.61 535.75 C 454.12 535.98 453.14 536.43 452.65 536.66 C 452.45 538.08 452.22 539.49 451.85 540.89 C 451.58 543.56 451.46 546.26 450.87 548.89 C 450.60 551.23 450.40 553.58 449.88 555.88 C 449.63 559.40 449.07 562.89 448.61 566.39 C 455.80 566.55 462.91 565.14 470.11 565.12 C 474.16 564.54 478.34 564.18 482.42 564.67 C 487.31 566.18 488.03 572.02 486.87 576.30 C 485.68 581.57 487.12 589.42 481.06 592.01 C 473.83 593.55 466.32 593.53 458.93 593.88 C 454.50 594.75 449.96 594.62 445.47 594.72 C 445.04 594.97 444.17 595.47 443.74 595.71 C 443.11 600.09 442.69 604.51 441.90 608.87 C 441.40 613.89 440.65 618.89 439.93 623.89 C 439.83 624.53 439.63 625.82 439.53 626.46 C 441.48 627.58 443.77 627.31 445.89 626.87 C 457.61 626.32 469.27 624.74 481.01 624.32 C 484.53 623.81 487.70 626.55 488.34 629.92 C 488.87 633.65 487.73 637.31 487.33 640.98 C 486.77 644.02 486.75 647.27 485.08 649.98 C 484.60 650.32 483.63 650.99 483.15 651.32 C 477.61 653.00 471.75 652.29 466.10 653.27 C 457.76 653.79 449.43 654.42 441.11 655.11 C 431.05 655.58 421.03 657.19 410.95 656.71 C 408.24 656.74 406.77 654.24 405.52 652.24 C 405.55 650.19 405.61 648.13 406.14 646.14 C 407.16 637.80 407.87 629.42 409.10 621.11 C 409.36 619.02 409.57 616.93 409.84 614.85 C 410.55 611.96 410.40 608.96 411.09 606.09 C 412.26 596.31 413.56 586.55 414.82 576.78 C 415.74 571.20 416.21 565.55 416.87 559.94 C 418.34 549.69 419.48 539.39 421.13 529.17 C 421.39 527.14 421.60 525.10 422.11 523.12 C 422.36 521.68 422.59 520.25 422.82 518.83 C 423.40 517.11 424.00 515.41 424.59 513.70 C 425.55 512.56 426.60 511.50 427.76 510.55 C 431.87 508.51 436.43 508.46 440.88 507.88 C 444.29 507.52 447.72 507.35 451.14 507.14 C 455.10 506.40 459.15 506.51 463.16 506.16 C 467.10 505.37 471.13 505.45 475.13 505.13 Z" />
<path fill="#fffffe" opacity="1.00" d=" M 391.13 512.11 C 396.58 511.54 403.39 510.01 407.61 514.52 C 407.46 515.92 407.88 517.57 406.96 518.79 C 391.43 540.36 375.75 561.84 360.36 583.52 C 358.80 585.28 358.79 587.88 359.88 589.88 C 361.59 593.26 363.38 596.61 365.20 599.94 C 365.89 601.24 366.59 602.54 367.28 603.86 C 369.19 607.57 371.20 611.23 373.22 614.89 C 376.49 620.93 379.87 626.91 383.23 632.90 C 386.16 638.35 389.57 643.53 392.47 649.00 C 393.47 650.98 394.21 653.66 392.67 655.57 C 391.48 657.53 389.27 658.43 387.27 659.34 C 378.95 660.28 370.44 661.15 362.12 660.03 C 356.10 657.22 353.95 650.41 350.83 645.06 C 349.81 643.07 348.78 641.09 347.73 639.12 C 345.77 635.44 343.88 631.72 341.91 628.05 C 341.24 626.69 340.56 625.35 339.86 624.02 C 339.18 622.69 338.49 621.37 337.81 620.06 C 337.55 619.56 337.05 618.57 336.80 618.07 C 335.85 616.04 334.83 614.06 333.78 612.10 C 333.01 610.52 332.26 608.95 331.48 607.40 C 331.09 607.48 330.30 607.65 329.91 607.73 C 326.97 611.88 322.89 615.25 320.77 619.94 C 319.70 630.92 318.43 641.91 316.88 652.83 C 316.49 656.80 316.79 662.18 312.40 664.06 C 306.19 665.60 299.73 665.72 293.36 665.52 C 291.48 665.51 289.71 664.86 287.97 664.25 C 286.61 662.45 285.40 660.34 285.66 658.00 C 286.52 648.58 287.89 639.21 288.81 629.80 C 289.83 623.94 290.21 617.99 291.13 612.14 C 291.42 609.46 291.53 606.76 292.13 604.14 C 292.71 598.79 293.22 593.42 294.11 588.11 C 294.38 585.70 294.56 583.29 294.85 580.88 C 295.60 577.67 295.38 574.33 296.11 571.12 C 296.42 568.45 296.53 565.76 297.13 563.14 C 297.37 561.03 297.58 558.93 297.85 556.84 C 298.62 553.64 298.34 550.29 299.10 547.10 C 299.42 544.43 299.53 541.74 300.11 539.11 C 300.62 533.64 301.06 528.12 302.53 522.81 C 305.77 518.12 312.08 518.56 317.12 518.12 C 321.79 517.42 326.66 517.46 331.21 518.82 C 332.63 519.33 333.44 520.67 334.42 521.74 C 334.63 524.47 334.63 527.27 333.93 529.95 C 333.00 538.27 332.05 546.60 330.86 554.88 C 330.62 557.23 330.54 559.62 329.85 561.92 C 329.41 565.22 329.73 568.63 328.82 571.87 C 328.61 573.90 328.59 575.95 328.83 577.99 C 331.21 575.98 332.89 573.33 334.75 570.87 C 345.64 555.97 356.14 540.79 367.00 525.87 C 370.23 521.54 372.96 516.33 378.12 514.02 C 382.35 512.76 386.74 512.35 391.13 512.11 Z" />
</g>
</svg>
